# Blender v2.83.5 OBJ File: ''
# www.blender.org
mtllib marker_e.mtl
o Cube_Cube.001
v 1.000000 -0.025000 1.000000
v 1.000000 0.075000 1.000000
v -1.000000 0.075000 1.000000
v -1.000000 -0.025000 1.000000
v -1.000000 0.075000 -1.000000
v -1.000000 -0.025000 -1.000000
v 1.000000 0.075000 -1.000000
v 1.000000 -0.025000 -1.000000
vt 0.066473 0.747577
vt 0.160792 0.747577
vt 0.160792 0.442612
vt 0.066473 0.442612
vt 0.047275 0.534036
vt 0.148276 0.534036
vt 0.149009 0.609542
vt 0.047275 0.609729
vt 0.089432 0.632731
vt 0.153223 0.632731
vt 0.153223 0.382977
vt 0.089432 0.382977
vt 0.072066 0.627724
vt 0.146735 0.627724
vt 0.144434 0.311175
vt 0.077457 0.311175
vt 0.056045 0.630341
vt 0.210411 0.630341
vt 0.210411 0.385367
vt 0.056045 0.385367
vt 0.000400 0.999435
vt 0.000400 -0.005767
vt 0.998401 -0.005767
vt 0.998401 0.999435
vn 0.0000 0.0000 1.0000
vn -1.0000 0.0000 0.0000
vn 0.0000 0.0000 -1.0000
vn 1.0000 0.0000 0.0000
vn 0.0000 -1.0000 0.0000
vn 0.0000 1.0000 0.0000
usemtl Material.001
s 1
f 1/1/1 2/2/1 3/3/1 4/4/1
f 4/5/2 3/6/2 5/7/2 6/8/2
f 6/9/3 5/10/3 7/11/3 8/12/3
f 8/13/4 7/14/4 2/15/4 1/16/4
f 4/17/5 6/18/5 8/19/5 1/20/5
f 5/21/6 3/22/6 2/23/6 7/24/6
